<svg width="71" height="130" viewBox="0 0 71 130" fill="none" xmlns="http://www.w3.org/2000/svg">
<path d="M45.6327 73.5984C45.6207 73.626 45.6051 73.6525 45.5931 73.6801C45.6195 73.7532 45.6279 73.6931 45.6327 73.5984Z" fill="#C6BC93"/>
<path d="M64.749 47.8887C61.9753 48.1094 49.7027 55.2999 42.2905 63.6091C40.2363 65.914 42.3013 70.8366 40.0456 72.8165L45.6603 73.2662C45.6426 73.3761 45.6334 73.4869 45.6327 73.5982C47.3391 69.6637 53.0017 66.2472 56.0452 63.4399C59.1991 60.5319 63.8496 60.2403 69.2364 55.7494C72.1588 51.0329 67.8801 47.6405 64.749 47.8887Z" fill="#FFF2BD"/>
<path d="M32.1442 80.9565C32.167 80.9769 32.1922 80.995 32.2126 81.0167C32.2126 81.0936 32.1814 81.0431 32.1442 80.9565Z" fill="#C6BC93"/>
<path d="M4.49795 64.7617C7.13617 63.8802 21.2435 65.7042 31.3119 70.4567C34.1048 71.7758 34.1264 77.1133 36.9769 78.0535L31.9847 80.6606C32.0444 80.7549 32.0961 80.8537 32.1393 80.9566C29.0322 78.0006 22.4847 77.069 18.5885 75.6803C14.5484 74.2413 10.1533 75.7845 3.43782 73.7615C-1.09393 70.5512 1.51795 65.757 4.49795 64.7617Z" fill="#FFF2BD"/>
<path d="M35.4935 0.166992H37.2923C38 0.166992 38.7008 0.306387 39.3546 0.577219C40.0084 0.84805 40.6025 1.24501 41.103 1.74545C41.6034 2.24588 42.0004 2.83998 42.2712 3.49382C42.542 4.14767 42.6814 4.84845 42.6814 5.55617V124.126C42.6814 125.556 42.1135 126.927 41.1026 127.938C40.0917 128.949 38.7207 129.517 37.2911 129.517H35.4923C34.0629 129.517 32.6921 128.948 31.6815 127.938C30.6708 126.927 30.1031 125.556 30.1031 124.126V5.55737C30.1031 4.12775 30.671 2.75669 31.6819 1.7458C32.6928 0.734905 34.0638 0.166992 35.4935 0.166992V0.166992Z" fill="#FFF2BD"/>
<path d="M34.8615 17.9043C37.7927 16.2904 40.2929 13.9953 42.1514 11.2127C42.2959 10.9557 42.3337 10.6524 42.2565 10.3678C42.1793 10.0832 41.9933 9.84019 41.7387 9.69149C41.4841 9.54279 41.1812 9.50036 40.8954 9.57292C40.6097 9.64548 40.3639 9.82726 40.2111 10.0794C38.5525 12.5325 36.3287 14.551 33.727 15.965C32.5062 16.7337 33.6323 18.6778 34.8615 17.9043Z" fill="#968F71"/>
<path d="M34.8615 26.5865C37.2395 24.898 39.6306 23.2802 41.2531 20.7943C42.047 19.5783 40.102 18.4534 39.3141 19.661C37.7832 21.6612 35.8874 23.3537 33.727 24.6486C32.5578 25.4797 33.6767 27.4283 34.8615 26.5865Z" fill="#968F71"/>
<path d="M35.1613 36.4679C37.547 35.0742 39.6206 33.2046 41.2531 30.9755C42.1105 29.8063 40.1607 28.6874 39.3141 29.841C37.8902 31.7481 36.0907 33.3436 34.0268 34.5289C33.7777 34.6832 33.5988 34.9286 33.5282 35.2131C33.4576 35.4975 33.5008 35.7983 33.6488 36.0513C33.7968 36.3042 34.0377 36.4893 34.3203 36.5671C34.6028 36.645 34.9046 36.6094 35.1613 36.4679Z" fill="#968F71"/>
<path d="M34.8614 45.7493C37.5618 44.3043 39.8607 42.2108 41.5517 39.6573C41.6874 39.4011 41.7188 39.1023 41.6393 38.8235C41.5598 38.5447 41.3755 38.3074 41.1252 38.1613C40.8748 38.0151 40.5776 37.9713 40.2957 38.0392C40.0138 38.107 39.7691 38.2811 39.6126 38.5252C38.1194 40.748 36.0968 42.5648 33.727 43.8115C32.5038 44.5765 33.6299 46.5204 34.8614 45.7493Z" fill="#968F71"/>
<path d="M34.8615 55.0385C37.4679 53.708 39.6737 51.7089 41.2531 49.2454C42.0386 48.0246 40.0936 46.8997 39.3141 48.1121C37.9295 50.2427 36.0005 51.9645 33.727 53.0995C32.4391 53.7614 33.576 55.6992 34.8615 55.0385Z" fill="#968F71"/>
<path d="M35.1612 64.3142C37.3803 62.9344 39.3406 61.1765 40.9533 59.1205C41.8131 57.9524 39.8633 56.8359 39.0143 57.9871C37.618 59.7272 35.9305 61.212 34.0268 62.3752C32.8276 63.1763 33.9537 65.1225 35.1612 64.3142Z" fill="#968F71"/>
<path d="M35.9815 73.4209C37.8858 71.531 39.9053 69.7599 41.6705 67.7321C42.6155 66.6444 41.0349 65.0492 40.0816 66.1441C38.3175 68.1719 36.2981 69.9421 34.3938 71.8332C34.1973 72.0466 34.0909 72.3276 34.0969 72.6176C34.1028 72.9075 34.2207 73.1839 34.4258 73.389C34.6309 73.5941 34.9073 73.7118 35.1972 73.7178C35.4872 73.7238 35.7682 73.6174 35.9815 73.4209Z" fill="#968F71"/>
<path d="M36.0594 81.9794C38.1848 80.6932 39.9669 78.911 41.2531 76.7857C42.0662 75.5865 40.12 74.4606 39.3141 75.6526C38.2269 77.4482 36.7209 78.9537 34.925 80.0404C33.6455 80.7192 34.7799 82.657 36.0594 81.9794Z" fill="#968F71"/>
<path d="M36.3581 90.9625C38.627 89.9192 40.126 87.8687 41.6765 85.9968C42.5915 84.8899 41.0122 83.2926 40.0876 84.4079C38.6617 86.1311 37.3139 88.0629 35.2249 89.0234C33.9057 89.623 35.0522 91.5633 36.3581 90.9625Z" fill="#968F71"/>
<path d="M35.9815 99.4698C37.9586 97.819 39.7269 95.9333 41.2472 93.8542C42.0999 92.6801 40.15 91.5612 39.3081 92.7197C37.8841 94.6313 36.2331 96.3629 34.3914 97.8763C33.2809 98.8104 34.8783 100.395 35.9792 99.464L35.9815 99.4698Z" fill="#968F71"/>
<path d="M35.1936 107.544C38.1736 108.313 40.2302 104.232 41.5493 102.237C42.3516 101.025 40.4065 99.9026 39.6102 101.104C38.9963 102.031 38.4111 102.983 37.7239 103.862C37.3642 104.314 36.4804 105.562 35.7885 105.383C35.5022 105.306 35.1971 105.346 34.9398 105.493C34.6825 105.64 34.4938 105.883 34.4147 106.169C34.3356 106.454 34.3726 106.759 34.5176 107.018C34.6626 107.276 34.9039 107.467 35.1889 107.549L35.1936 107.544Z" fill="#968F71"/>
<path d="M36.6579 117.911C38.6642 116.832 39.8298 114.828 41.3767 113.244C42.3889 112.208 40.8012 110.619 39.789 111.656C38.3944 113.084 37.3271 115.014 35.5247 115.973C34.2475 116.656 35.382 118.596 36.6579 117.913V117.911Z" fill="#968F71"/>
<path d="M36.9577 125.995C38.5642 125.232 39.9421 124.06 40.9534 122.598C41.1035 122.34 41.1454 122.034 41.0698 121.746C40.9943 121.458 40.8075 121.212 40.5504 121.061C40.2917 120.918 39.9874 120.879 39.7012 120.955C39.4149 121.03 39.1689 121.213 39.0143 121.465C38.1972 122.594 37.0969 123.487 35.8244 124.056C35.5674 124.206 35.3806 124.452 35.3051 124.74C35.2295 125.028 35.2714 125.335 35.4215 125.592C35.5768 125.843 35.823 126.026 36.109 126.101C36.395 126.176 36.6989 126.138 36.9577 125.995Z" fill="#968F71"/>
<path d="M34.7896 9.9489C36.5953 8.10788 38.2555 6.12958 39.7555 4.03198C40.6045 2.85557 38.6558 1.73664 37.8164 2.89866C36.4212 4.83559 34.8784 6.66202 33.2018 8.3612C33.0054 8.57452 32.899 8.85558 32.905 9.14553C32.9109 9.43549 33.0287 9.71191 33.2338 9.91699C33.4389 10.1221 33.7153 10.2398 34.0053 10.2458C34.2952 10.2517 34.5763 10.1454 34.7896 9.9489Z" fill="#968F71"/>
<path d="M46.333 70.7959C43.4235 70.2855 40.427 70.7412 37.8007 72.0934C36.5864 72.64 35.4559 73.3562 34.443 74.2207C33.7065 74.8094 33.0278 75.4671 32.4164 76.1849L31.0684 76.4092C28.1472 76.2365 23.1777 78.9275 22.5374 81.8055C22.1738 83.651 22.4683 85.5656 23.3696 87.2166C24.2708 88.8675 25.7219 90.1506 27.4709 90.8428C30.9089 92.1164 35.5054 90.5116 38.9291 89.8401C40.8737 89.5707 42.7338 88.8714 44.374 87.7927C46.0143 86.714 47.3935 85.2831 48.4112 83.6043C50.8672 79.6218 52.299 72.2373 46.333 70.7959Z" fill="#FFF2BD"/>
<path opacity="0.5" d="M49.6991 72.9065C47.4003 73.885 45.2045 76.8711 43.6504 78.1518C39.5618 81.4128 34.8926 83.8699 29.8897 85.3935C27.735 86.1109 25.4999 86.5592 23.2353 86.7283C24.1075 88.5083 25.6173 89.8953 27.4649 90.6136C30.9029 91.8872 35.4994 90.2828 38.9231 89.61C40.8678 89.3409 42.728 88.6414 44.3683 87.5627C46.0085 86.4839 47.3877 85.0532 48.4052 83.3743C50.192 80.4854 51.4332 75.8061 49.6991 72.9065Z" fill="#968F71"/>
<path d="M45.5068 70.4636C47.107 68.0459 48.283 65.3731 48.9844 62.5599C49.0383 62.2824 48.9857 61.9946 48.837 61.7542C48.6883 61.5138 48.4545 61.3383 48.1821 61.2626C47.9098 61.187 47.6189 61.2168 47.3675 61.3461C47.1162 61.4753 46.9228 61.6948 46.8258 61.9603C46.1711 64.5848 45.0698 67.0768 43.57 69.3279C42.7306 70.5079 44.6733 71.628 45.5091 70.4612L45.5068 70.4636Z" fill="#968F71"/>
<path d="M52.468 65.7474C53.5811 63.6425 54.5561 61.4671 55.3868 59.2356C55.96 57.9225 54.0269 56.7775 53.4477 58.1026C52.6169 60.3341 51.642 62.5091 50.5289 64.6141C50.3907 64.8705 50.3574 65.1707 50.4362 65.4511C50.5149 65.7316 50.6995 65.9705 50.951 66.1175C51.2025 66.2645 51.5013 66.308 51.7843 66.239C52.0673 66.1699 52.3125 65.9937 52.468 65.7474Z" fill="#968F71"/>
<path d="M60.1033 60.3579C61.2873 58.2345 62.1573 55.9506 62.6863 53.5776C62.9885 52.165 60.8239 51.5642 60.5277 52.978C60.0489 55.1628 59.2548 57.2662 58.1702 59.2223C57.4782 60.4946 59.4173 61.6279 60.1092 60.3556L60.1033 60.3579Z" fill="#968F71"/>
<path d="M65.9422 57.6635C66.6377 56.0254 67.2673 54.3608 67.9628 52.7239C68.5228 51.4048 66.5885 50.2607 66.0237 51.5894C65.3282 53.2275 64.7046 54.8921 64.0031 56.5302C63.443 57.8493 65.3774 58.9922 65.9422 57.6635Z" fill="#968F71"/>
<path d="M5.98251 72.9231C5.03737 71.3477 4.39102 69.6113 4.07584 67.8014C3.86598 66.3731 1.7014 66.9835 1.91006 68.401C2.27158 70.4008 2.9945 72.3181 4.04341 74.0588C4.19897 74.3051 4.4441 74.4813 4.72711 74.5503C5.01012 74.6194 5.3089 74.5758 5.56041 74.4288C5.81192 74.2819 5.9965 74.043 6.07525 73.7625C6.154 73.482 6.12075 73.1819 5.98251 72.9255V72.9231Z" fill="#968F71"/>
<path d="M10.9184 72.6988C9.99217 71.4409 9.342 70.0017 9.01051 68.4752C8.77067 67.0494 6.60614 67.6562 6.85197 69.0748C7.22529 70.7922 7.95179 72.413 8.98533 73.8344C9.7792 75.0336 11.7243 73.9135 10.9244 72.7011L10.9184 72.6988Z" fill="#968F71"/>
<path d="M17.9336 73.3706C16.3543 71.994 14.4776 70.5585 14.2162 68.3256C14.0519 66.9045 11.8046 66.8866 11.9701 68.3256C12.3107 71.2804 14.2017 73.0936 16.3411 74.9583C17.4276 75.9045 19.0237 74.324 17.9289 73.3706H17.9336Z" fill="#968F71"/>
<path d="M24.9994 76.4092C24.775 74.6087 24.3082 72.8468 23.6118 71.1712C23.5304 70.8863 23.3397 70.6449 23.0812 70.4999C22.8227 70.3549 22.5173 70.3181 22.2316 70.3972C21.946 70.4762 21.7032 70.6648 21.5561 70.9221C21.4089 71.1794 21.3694 71.4845 21.4461 71.7708C22.0855 73.2536 22.5254 74.8147 22.7545 76.413C22.7988 77.8581 25.0437 77.8617 24.9994 76.413V76.4092Z" fill="#968F71"/>
<path d="M29.9005 76.1106C29.4328 74.6943 29.0203 73.2615 28.5526 71.844C28.1017 70.4757 25.9335 71.0621 26.388 72.4436C26.8545 73.8611 27.2683 75.2939 27.7347 76.7102C28.1856 78.0785 30.3549 77.4933 29.9005 76.1106Z" fill="#968F71"/>
</svg>
