<svg width="638" height="711" viewBox="0 0 638 711" fill="none" xmlns="http://www.w3.org/2000/svg">
<path d="M12.8944 2.00091H625.079C626.573 1.98155 628.055 2.27214 629.43 2.85429C630.805 3.43644 632.044 4.29738 633.068 5.38257C634.092 6.46777 634.879 7.75353 635.379 9.1582C635.879 10.5629 636.08 12.0558 635.971 13.5423L548.966 698.292C548.43 704.523 539.592 709.315 533.175 709.315H16.2573C14.5709 709.337 12.8985 709.008 11.346 708.351C9.79357 707.694 8.39499 706.721 7.23897 705.496C6.08295 704.271 5.19471 702.82 4.6306 701.234C4.06649 699.648 3.83882 697.963 3.96201 696.285L2 11.765C2.26176 9.07253 3.52599 6.57573 5.54301 4.76799C7.56003 2.96024 10.1832 1.97292 12.8944 2.00091Z" fill="url(#paint0_radial_1_1141)" stroke="#020202" stroke-width="3.11834" stroke-miterlimit="10"/>
<defs>
<radialGradient id="paint0_radial_1_1141" cx="0" cy="0" r="1" gradientUnits="userSpaceOnUse" gradientTransform="translate(368.31 355.658) scale(335.977 335.268)">
<stop stop-color="#EDC300"/>
<stop offset="0.97" stop-color="#ECB50C"/>
</radialGradient>
</defs>
</svg>
