<svg width="470" height="524" viewBox="0 0 470 524" fill="none" xmlns="http://www.w3.org/2000/svg">
<path fill-rule="evenodd" clip-rule="evenodd" d="M382.841 3.83684C361.202 -1.82166 83.473 -0.826648 0 4.24501C0.559029 15.2925 1.08367 26.3583 1.57391 37.4423L31.4232 40.3348L1.9762 46.7406C4.2528 100.453 6.04223 171.118 6.57252 225.345L22.4618 230.865L6.65741 235.772C7.23734 313.011 5.92989 390.484 2.44641 467.471C14.9418 485.969 27.4399 504.466 39.9406 522.964C45.1377 525.328 377.789 523.225 463.294 520.845C462.053 495.923 461.074 471.035 460.359 446.181L448.847 438.994L454.108 432.441L453.203 427.339L459.765 422.995C457.97 342.587 458.908 262.522 462.58 182.8L453.891 178.313L458.323 170.619L446.027 164.435L463.689 160.29C465.419 127.221 467.279 77.6413 469.944 44.6905C469.944 44.6696 469.944 44.6488 469.944 44.6292L382.833 3.83684H382.841Z" fill="url(#paint0_linear_1_1148)"/>
<path style="mix-blend-mode:multiply" fill-rule="evenodd" clip-rule="evenodd" d="M382.88 3.86841L470 44.653C468.004 50.8005 448.745 72.5764 445.013 72.9364C441.42 73.2833 391.881 12.1651 382.885 3.86841H382.88Z" fill="url(#paint1_radial_1_1148)"/>
<path style="mix-blend-mode:multiply" fill-rule="evenodd" clip-rule="evenodd" d="M2.45288 467.477C11.1479 471.887 52.8465 487.345 54.5406 491.31C55.8755 494.44 41.1787 516.902 39.947 522.969C27.4481 504.471 14.9501 485.974 2.45288 467.477Z" fill="url(#paint2_radial_1_1148)"/>
<path fill-rule="evenodd" clip-rule="evenodd" d="M441.346 62.0714C423.129 42.1904 401.858 20.1627 382.846 3.83667C389.285 3.90579 470.056 38.0616 470 44.6552C461.086 51.4494 451.482 57.2891 441.346 62.0779V62.0714Z" fill="url(#paint3_linear_1_1148)"/>
<path fill-rule="evenodd" clip-rule="evenodd" d="M2.45291 467.477C17.356 474.602 32.3323 481.583 46.6541 489.89C43.8562 500.795 41.6176 511.836 39.9471 522.969C36.2507 522.93 2.41634 471.587 2.45291 467.477Z" fill="url(#paint4_linear_1_1148)"/>
<path style="mix-blend-mode:screen" opacity="0.5" fill-rule="evenodd" clip-rule="evenodd" d="M405.035 56.9739C413.876 65.9357 421.408 76.2001 421.329 85.3562C421.093 113.155 453.242 113.561 443.322 152.694C437.575 175.352 452.746 178.627 451.159 196.212C450.019 208.778 439.886 212.159 438.275 233.611C436.618 255.659 437.934 286.557 444.728 296.685C460.285 319.873 438.526 359.24 444.142 381.973C448.336 399.513 450.878 417.406 451.735 435.418L448.862 438.992L451.794 440.818C451.895 444.542 451.459 448.261 450.498 451.86C443.706 471.28 438.612 457.642 430.628 483.262C425.445 499.888 406.912 502.963 387.786 500.46C357.064 496.438 270.543 476.113 244.478 476.611C221.489 477.05 211.925 497.69 187.971 500.901C173.926 502.784 109.322 498.861 94.7674 503.77C61.6723 514.938 73.8155 468.765 33.4191 461.615C4.33779 456.467 27.1209 392.941 27.2711 375.611C27.672 328.532 14.1012 328.132 16.5711 270.33C17.057 258.985 24.3714 252.725 16.6913 232.652L22.4658 230.858L15.1135 228.304C5.79677 197.602 35.8707 143.05 21.1035 90.7462C16.1688 73.2712 13.4325 57.0234 14.9097 43.9198L31.4272 40.327L15.7404 38.8076C19.4381 21.75 31.8844 11.3394 58.5728 12.8378C110.557 15.7551 179.791 20.9114 229.843 30.4561C247.887 33.9816 266.099 36.5811 284.409 38.2443C314.907 40.6242 389.825 41.5501 405.033 56.9659L405.035 56.9739Z" fill="url(#paint5_radial_1_1148)"/>
<path style="mix-blend-mode:screen" opacity="0.5" fill-rule="evenodd" clip-rule="evenodd" d="M286.952 57.8385C321.399 57.6742 413.387 96.2248 415.9 133.754C417.67 160.162 444.477 169.832 411.845 218.217C394.759 243.552 437.095 288.707 424.535 318.779C414.398 343.056 435.461 359.254 429.087 379.941C421.903 403.244 449.202 425.096 426.59 452.13C405.926 476.825 356.077 489.716 318.212 478.122C310.578 475.785 259.412 465.873 231.71 473.851C227.139 475.168 218.299 477.139 210.052 479.541C146.739 497.981 125.081 467.335 77.7578 465.066C65.5363 464.479 65.9046 452.743 55.9191 451.799C24.2882 448.806 29.744 409.134 41.8023 381.603C49.8351 363.263 47.5716 339.649 37.8748 320.229C12.1281 268.677 34.9816 237.177 55.6383 209.431C68.6997 191.89 53.521 143.463 48.3526 128.499C36.1846 93.2879 51.635 72.2749 63.5196 44.7897C71.0952 27.2756 163.43 28.9356 177.759 40.3283C206.077 62.8436 276.373 57.8906 286.952 57.841V57.8385Z" fill="url(#paint6_radial_1_1148)"/>
<path style="mix-blend-mode:screen" fill-rule="evenodd" clip-rule="evenodd" d="M401.014 12.3537C405.88 31.2632 444.877 54.7371 458.143 52.8579C452.746 56.2863 447.134 59.3638 441.341 62.0713C423.17 42.249 401.962 20.2749 382.986 3.96314C382.938 3.92141 382.891 3.87841 382.841 3.83276C384.539 3.85102 391.395 6.23619 400.573 9.85899C400.654 10.6951 400.8 11.5236 401.011 12.3368V12.3446L401.014 12.3537Z" fill="url(#paint7_radial_1_1148)"/>
<path style="mix-blend-mode:screen" fill-rule="evenodd" clip-rule="evenodd" d="M40.7018 493.532C36.3915 482.969 17.2657 475.315 5.65014 472.205C5.20082 472.085 4.76544 471.972 4.34399 471.865C3.48653 470.509 2.85033 469.026 2.45923 467.471C2.81189 467.651 3.2168 467.844 3.66742 468.049C18.1721 474.975 32.7265 481.803 46.6604 489.885C43.8625 500.79 41.6239 511.83 39.9534 522.963C39.5695 522.879 39.2193 522.683 38.9464 522.4C39.0169 522.199 39.0861 521.993 39.1553 521.783C41.6109 514.321 43.6341 500.721 40.7083 493.532H40.7018Z" fill="url(#paint8_radial_1_1148)"/>
<path style="mix-blend-mode:multiply" opacity="0.4" fill-rule="evenodd" clip-rule="evenodd" d="M412.992 518.848C448.917 517.769 458.9 496.927 461.237 472.924C461.817 488.883 462.505 504.857 463.301 520.844C398.297 522.656 140.03 524.304 74.9255 523.952C125.976 520.581 197.417 514.289 241.412 505.181C271.441 498.964 300.173 503.44 329.013 512.523C340.974 516.29 395.713 519.367 412.999 518.848H412.992Z" fill="url(#paint9_radial_1_1148)"/>
<path style="mix-blend-mode:multiply" opacity="0.35" fill-rule="evenodd" clip-rule="evenodd" d="M376.862 2.80676C365.445 3.88656 285.189 8.05697 272.251 11.0708C255.258 15.0287 243.413 14.0141 230.73 11.6889C197.362 5.57135 120.231 2.95149 88.9431 0.953606C159.555 -0.685651 351.79 -0.300914 376.862 2.80676Z" fill="url(#paint10_radial_1_1148)"/>
<defs>
<linearGradient id="paint0_linear_1_1148" x1="208.655" y1="498.323" x2="208.655" y2="-28.82" gradientUnits="userSpaceOnUse">
<stop stop-color="#EDD6B9"/>
<stop offset="1" stop-color="#D4B492"/>
</linearGradient>
<radialGradient id="paint1_radial_1_1148" cx="0" cy="0" r="1" gradientUnits="userSpaceOnUse" gradientTransform="translate(356.549 70.1944) rotate(-1.44066) scale(111.404 115.439)">
<stop stop-color="#A48A7B"/>
<stop offset="1" stop-color="white"/>
</radialGradient>
<radialGradient id="paint2_radial_1_1148" cx="0" cy="0" r="1" gradientUnits="userSpaceOnUse" gradientTransform="translate(89.6748 601.069) rotate(-1.07417) scale(59.9647 62.1663)">
<stop stop-color="#A48A7B"/>
<stop offset="1" stop-color="white"/>
</radialGradient>
<linearGradient id="paint3_linear_1_1148" x1="405.768" y1="-1.52153" x2="385.924" y2="42.2792" gradientUnits="userSpaceOnUse">
<stop stop-color="#BF9F7E"/>
<stop offset="1" stop-color="#EDD6B9"/>
</linearGradient>
<linearGradient id="paint4_linear_1_1148" x1="9.87869" y1="448.11" x2="-13.0761" y2="458.646" gradientUnits="userSpaceOnUse">
<stop stop-color="#EDD6B9"/>
<stop offset="1" stop-color="#BF9F7E"/>
</linearGradient>
<radialGradient id="paint5_radial_1_1148" cx="0" cy="0" r="1" gradientUnits="userSpaceOnUse" gradientTransform="translate(331.546 328.069) rotate(-1.01689) scale(420.39 435.938)">
<stop stop-color="#CA9E67"/>
<stop offset="1"/>
</radialGradient>
<radialGradient id="paint6_radial_1_1148" cx="0" cy="0" r="1" gradientUnits="userSpaceOnUse" gradientTransform="translate(320.925 328.738) rotate(-1.03063) scale(363.083 376.397)">
<stop stop-color="#CA9E67"/>
<stop offset="1"/>
</radialGradient>
<radialGradient id="paint7_radial_1_1148" cx="0" cy="0" r="1" gradientUnits="userSpaceOnUse" gradientTransform="translate(323.678 35.6185) rotate(-1.47787) scale(92.8183 96.2453)">
<stop/>
<stop offset="1" stop-color="#A3805F"/>
</radialGradient>
<radialGradient id="paint8_radial_1_1148" cx="0" cy="0" r="1" gradientUnits="userSpaceOnUse" gradientTransform="translate(115.49 583.197) rotate(-0.910127) scale(53.9009 55.8889)">
<stop/>
<stop offset="1" stop-color="#A3805F"/>
</radialGradient>
<radialGradient id="paint9_radial_1_1148" cx="0" cy="0" r="1" gradientUnits="userSpaceOnUse" gradientTransform="translate(-83.889 463.1) rotate(-8.6024) scale(385.963 390.389)">
<stop stop-color="white"/>
<stop offset="1" stop-color="#A48A7B"/>
</radialGradient>
<radialGradient id="paint10_radial_1_1148" cx="0" cy="0" r="1" gradientUnits="userSpaceOnUse" gradientTransform="translate(-130.379 -110.613) rotate(-22.5879) scale(363.265 319.666)">
<stop stop-color="#A48A7B"/>
<stop offset="1" stop-color="white"/>
</radialGradient>
</defs>
</svg>
