<svg width="708" height="713" viewBox="0 0 708 713" fill="none" xmlns="http://www.w3.org/2000/svg">
<path d="M98.1247 3.00091H692.212C693.703 2.98157 695.181 3.27176 696.554 3.85311C697.927 4.43446 699.164 5.2942 700.186 6.3779C701.208 7.46159 701.993 8.74558 702.492 10.1483C702.991 11.551 703.192 13.0419 703.083 14.5264L705.019 698.329C704.484 704.552 695.662 709.337 689.257 709.337H15.3051C13.6218 709.359 11.9524 709.031 10.4028 708.374C8.85325 707.718 7.45729 706.747 6.3034 705.524C5.1495 704.3 4.26291 702.851 3.69984 701.267C3.13677 699.684 2.90949 698.001 3.03246 696.325L87.2438 12.7515C87.5052 10.0616 88.7679 7.56734 90.7826 5.76193C92.7973 3.95653 95.4173 2.97132 98.1247 3.00091Z" fill="#343C51" stroke="#020202" stroke-width="5.56768" stroke-miterlimit="10"/>
</svg>
