<svg width="470" height="524" viewBox="0 0 470 524" fill="none" xmlns="http://www.w3.org/2000/svg">
<path fill-rule="evenodd" clip-rule="evenodd" d="M382.841 3.83684C361.202 -1.82166 83.473 -0.826648 0 4.24501C0.559029 15.2925 1.08367 26.3583 1.57391 37.4423L31.4232 40.3348L1.9762 46.7406C4.2528 100.453 6.04223 171.118 6.57252 225.345L22.4618 230.865L6.65741 235.772C7.23734 313.011 5.92989 390.484 2.44641 467.471C14.9418 485.969 27.4399 504.466 39.9406 522.964C45.1377 525.328 377.789 523.224 463.294 520.845C462.053 495.923 461.074 471.035 460.359 446.181L448.847 438.994L454.108 432.441L453.203 427.339L459.765 422.995C457.97 342.587 458.908 262.522 462.58 182.8L453.891 178.313L458.323 170.619L446.027 164.435L463.689 160.29C465.419 127.221 467.279 77.6413 469.944 44.6905C469.944 44.6696 469.944 44.6488 469.944 44.6292L382.833 3.83684H382.841Z" fill="url(#paint0_linear_1_1149)"/>
<defs>
<linearGradient id="paint0_linear_1_1149" x1="208.655" y1="498.323" x2="208.655" y2="-28.82" gradientUnits="userSpaceOnUse">
<stop stop-color="#EDD6B9"/>
<stop offset="1" stop-color="#D4B492"/>
</linearGradient>
</defs>
</svg>
