<svg width="456" height="543" viewBox="0 0 456 543" fill="none" xmlns="http://www.w3.org/2000/svg">
<path style="mix-blend-mode:multiply" fill-rule="evenodd" clip-rule="evenodd" d="M371.719 3.14687C352.046 -3.3398 89.7068 1.03856 10.0738 8.68968C7.37416 8.99877 4.8958 10.3304 3.14884 12.4106C1.40187 14.4907 0.519237 17.1611 0.682618 19.872C0.943846 25.766 1.14238 30.8454 1.44541 38.4952L30.0369 41.4886L1.82419 48.2076C3.96496 104.317 5.65511 177.415 6.1214 234.063L21.3406 239.816L6.20108 244.955C6.70134 325.644 5.39388 406.578 1.99921 487.008C6.72092 507.657 13.6539 523.466 25.1598 538.824C26.2217 540.311 27.672 541.477 29.3525 542.196C31.0329 542.915 32.8787 543.158 34.6881 542.9C69.1964 538.267 362.298 536.589 442.663 542.034C443.396 542.093 444.132 541.986 444.818 541.722C445.503 541.458 446.121 541.044 446.625 540.509C447.157 539.978 447.571 539.339 447.838 538.636C448.105 537.933 448.219 537.181 448.174 536.43C447.129 512.41 446.297 488.418 445.679 464.455L434.659 456.957L439.704 450.106L438.839 444.777L445.129 440.234C443.47 356.235 444.428 272.593 448.003 189.307L439.683 184.626L443.934 176.586L432.159 170.136L449.082 165.79C450.764 131.243 452.529 83.3224 455.104 48.8969C438.349 36.5815 381.946 6.52009 371.719 3.14687Z" fill="url(#paint0_radial_1_1147)"/>
<defs>
<radialGradient id="paint0_radial_1_1147" cx="0" cy="0" r="1" gradientUnits="userSpaceOnUse" gradientTransform="translate(353.172 457.18) rotate(-0.95831) scale(656.648 681.613)">
<stop stop-color="#A48A7B"/>
<stop offset="1" stop-color="white"/>
</radialGradient>
</defs>
</svg>
