<svg width="1440" height="72" viewBox="0 0 1440 72" fill="none" xmlns="http://www.w3.org/2000/svg">
<path d="M-222.474 71.7928V0H1620.45V71.7928" fill="#3F221E"/>
<path d="M274.667 7.107H114.426V63.937H274.667V7.107Z" fill="#F97A58"/>
<path d="M274.662 63.9371H118.428V14.7121C118.434 13.7386 118.826 12.8074 119.519 12.123C120.211 11.4385 121.147 11.0571 122.12 11.0626H274.662V63.9371Z" fill="#CE4611"/>
<path d="M269.775 56.4622C269.77 57.0477 269.532 57.6072 269.115 58.0181C268.698 58.429 268.135 58.6575 267.55 58.6542H118.428V63.931H274.662V11.2407H269.77L269.775 56.4622Z" fill="#932B16"/>
<path d="M610.949 7.107H450.707V63.937H610.949V7.107Z" fill="#F97A58"/>
<path d="M610.949 63.9371H454.711V14.7121C454.717 13.7388 455.109 12.8077 455.801 12.1234C456.493 11.439 457.428 11.0576 458.402 11.0625H610.949V63.9371Z" fill="#CE4611"/>
<path d="M606.058 56.4622C606.052 57.0477 605.815 57.6072 605.398 58.0181C604.981 58.429 604.418 58.6575 603.833 58.6542H454.711V63.931H610.949V11.2407H606.058V56.4622Z" fill="#932B16"/>
<path d="M779.091 7.107H618.85V63.937H779.091V7.107Z" fill="#F97A58"/>
<path d="M779.091 63.9371H622.852V14.7121C622.855 14.2301 622.953 13.7534 623.14 13.3092C623.327 12.8649 623.599 12.4619 623.942 12.123C624.284 11.7841 624.691 11.5159 625.137 11.334C625.583 11.152 626.061 11.0599 626.543 11.0626H779.091V63.9371Z" fill="#CE4611"/>
<path d="M774.199 56.4622C774.193 57.0478 773.956 57.6073 773.539 58.0181C773.121 58.4289 772.558 58.6575 771.973 58.6542H622.852V63.931H779.091V11.2407H774.199V56.4622Z" fill="#932B16"/>
<path d="M1115.37 7.107H955.132V63.937H1115.37V7.107Z" fill="#F97A58"/>
<path d="M1115.37 63.9371H959.134V14.7121C959.139 13.7386 959.532 12.8074 960.224 12.123C960.916 11.4385 961.852 11.0571 962.826 11.0626H1115.37V63.9371Z" fill="#CE4611"/>
<path d="M1110.48 56.4622C1110.47 57.0477 1110.23 57.6072 1109.82 58.0181C1109.4 58.429 1108.84 58.6575 1108.25 58.6542H959.134V63.931H1115.37V11.2407H1110.48V56.4622Z" fill="#932B16"/>
<path d="M1283.51 7.107H1123.27V63.937H1283.51V7.107Z" fill="#F97A58"/>
<path d="M1283.52 63.9371H1127.28V14.7121C1127.28 13.7386 1127.67 12.8074 1128.37 12.123C1129.06 11.4385 1129.99 11.0571 1130.97 11.0626H1283.52V63.9371Z" fill="#CE4611"/>
<path d="M1278.62 56.4622C1278.62 57.0477 1278.38 57.6072 1277.96 58.0181C1277.55 58.429 1276.98 58.6575 1276.4 58.6542H1127.28V63.931H1283.52V11.2407H1278.62V56.4622Z" fill="#932B16"/>
<path d="M442.808 7.107H282.567V63.937H442.808V7.107Z" fill="#E58061"/>
<path d="M442.808 63.9371H286.57V14.7121C286.572 14.2301 286.67 13.7534 286.857 13.3092C287.044 12.8649 287.316 12.4619 287.659 12.123C288.002 11.7841 288.408 11.5159 288.854 11.334C289.3 11.152 289.778 11.0599 290.26 11.0626H442.808V63.9371Z" fill="#D1591E"/>
<path d="M437.916 56.4622C437.911 57.0477 437.674 57.6072 437.257 58.0181C436.84 58.429 436.277 58.6575 435.691 58.6542H286.57V63.931H442.808V11.2407H437.916V56.4622Z" fill="#9E3B18"/>
<path d="M106.527 7.107H-53.7154V63.937H106.527V7.107Z" fill="#FC7647"/>
<path d="M106.527 63.9371H-49.7133V14.7121C-49.7075 13.7386 -49.3153 12.8074 -48.6229 12.123C-47.9305 11.4385 -46.9947 11.0571 -46.0211 11.0626H106.527V63.9371Z" fill="#BA3F09"/>
<path d="M101.634 56.4622C101.628 57.0477 101.391 57.6072 100.974 58.0181C100.557 58.429 99.9941 58.6575 99.4086 58.6542H-49.7133V63.931H106.527V11.2407H101.634V56.4622Z" fill="#932600"/>
<path d="M947.232 7.107H786.99V63.937H947.232V7.107Z" fill="#FC7647"/>
<path d="M947.232 63.9371H790.994V14.7121C790.997 14.2301 791.094 13.7534 791.281 13.3092C791.468 12.8649 791.741 12.4619 792.083 12.123C792.426 11.7841 792.832 11.5159 793.278 11.334C793.725 11.152 794.202 11.0599 794.684 11.0626H947.232V63.9371Z" fill="#BA3F09"/>
<path d="M942.339 56.4622C942.334 57.0474 942.097 57.6065 941.68 58.0173C941.263 58.4282 940.701 58.6571 940.116 58.6542H790.994V63.931H947.232V11.2407H942.339V56.4622Z" fill="#932600"/>
<path d="M1451.65 7.107H1291.41V63.937H1451.65V7.107Z" fill="#FC7647"/>
<path d="M1451.66 63.9371H1295.42V14.7121C1295.42 13.7386 1295.81 12.8074 1296.51 12.123C1297.2 11.4385 1298.14 11.0571 1299.11 11.0626H1451.66V63.9371Z" fill="#BA3F09"/>
<path d="M1446.76 56.4622C1446.76 57.0477 1446.52 57.6072 1446.1 58.0181C1445.69 58.429 1445.12 58.6575 1444.54 58.6542H1295.42V63.931H1451.66V11.2407H1446.77L1446.76 56.4622Z" fill="#932600"/>
</svg>
